NotoSerifDisplay-Regular.ufo
<glyph name="period" format="2">
  <advance width="250"/>
  <unicode hex="002E"/>
  <outline>
    <contour>
      <point x="125" y="-7" type="curve" smooth="yes"/>
      <point x="161" y="-7"/>
      <point x="179" y="16"/>
      <point x="179" y="61" type="curve" smooth="yes"/>
      <point x="179" y="106"/>
      <point x="161" y="129"/>
      <point x="125" y="129" type="curve" smooth="yes"/>
      <point x="89" y="129"/>
      <point x="71" y="106"/>
      <point x="71" y="61" type="curve" smooth="yes"/>
      <point x="71" y="16"/>
      <point x="89" y="-7"/>
    </contour>
  </outline>
</glyph>
<glyph name="exclamdown" format="2">
  <advance width="333"/>
  <unicode hex="00A1"/>
  <outline>
    <contour>
      <point x="108" y="-180" type="line"/>
      <point x="224" y="-180" type="line"/>
      <point x="173" y="334" type="line"/>
      <point x="158" y="334" type="line"/>
    </contour>
    <contour>
      <point x="166" y="406" type="curve" smooth="yes"/>
      <point x="202" y="406"/>
      <point x="220" y="429"/>
      <point x="220" y="474" type="curve" smooth="yes"/>
      <point x="220" y="519"/>
      <point x="202" y="542"/>
      <point x="166" y="542" type="curve" smooth="yes"/>
      <point x="130" y="542"/>
      <point x="112" y="519"/>
      <point x="112" y="474" type="curve" smooth="yes"/>
      <point x="112" y="429"/>
      <point x="130" y="406"/>
    </contour>
  </outline>
</glyph>
<glyph name="uni0191" format="2">
  <advance width="706"/>
  <unicode hex="0191"/>
  <anchor x="146" y="-10" name="bottom"/>
  <anchor x="411" y="714" name="top"/>
  <anchor x="685" y="714" name="topright"/>
  <outline>
    <contour>
      <point x="146" y="-10" type="curve" smooth="yes"/>
      <point x="273" y="-10"/>
      <point x="350" y="48"/>
      <point x="350" y="178" type="curve" smooth="yes"/>
      <point x="350" y="366" type="line"/>
      <point x="601" y="366" type="line"/>
      <point x="601" y="376" type="line"/>
      <point x="350" y="376" type="line"/>
      <point x="350" y="704" type="line"/>
      <point x="510" y="704" type="line" smooth="yes"/>
      <point x="611" y="704"/>
      <point x="646" y="672"/>
      <point x="652" y="572" type="curve" smooth="yes"/>
      <point x="654" y="539" type="line"/>
      <point x="664" y="539" type="line"/>
      <point x="658" y="714" type="line"/>
      <point x="154" y="714" type="line"/>
      <point x="154" y="704" type="line"/>
      <point x="167" y="704" type="line" smooth="yes"/>
      <point x="221" y="704"/>
      <point x="249" y="681"/>
      <point x="249" y="636" type="curve" smooth="yes"/>
      <point x="249" y="140" type="line" smooth="yes"/>
      <point x="249" y="42"/>
      <point x="208" y="0"/>
      <point x="145" y="0" type="curve" smooth="yes"/>
      <point x="73" y="0"/>
      <point x="51" y="57"/>
      <point x="51" y="165" type="curve"/>
      <point x="27" y="165"/>
      <point x="-12" y="150"/>
      <point x="-12" y="96" type="curve" smooth="yes"/>
      <point x="-12" y="26"/>
      <point x="55" y="-10"/>
    </contour>
  </outline>
</glyph>
<glyph name="florin" format="2">
  <advance width="439"/>
  <unicode hex="0192"/>
  <anchor x="105" y="-15" name="bottom"/>
  <anchor x="355" y="770" name="top"/>
  <anchor x="509" y="770" name="topright"/>
  <outline>
    <contour>
      <point x="105" y="-15" type="curve" smooth="yes"/>
      <point x="227" y="-15"/>
      <point x="286" y="50"/>
      <point x="286" y="169" type="curve" smooth="yes"/>
      <point x="286" y="526" type="line"/>
      <point x="427" y="526" type="line"/>
      <point x="427" y="536" type="line"/>
      <point x="286" y="536" type="line"/>
      <point x="286" y="595" type="line" smooth="yes"/>
      <point x="286" y="718"/>
      <point x="306" y="760"/>
      <point x="362" y="760" type="curve" smooth="yes"/>
      <point x="410" y="760"/>
      <point x="427" y="729"/>
      <point x="427" y="644" type="curve"/>
      <point x="475" y="644"/>
      <point x="509" y="664"/>
      <point x="509" y="700" type="curve" smooth="yes"/>
      <point x="509" y="741"/>
      <point x="466" y="770"/>
      <point x="381" y="770" type="curve" smooth="yes"/>
      <point x="254" y="770"/>
      <point x="192" y="705"/>
      <point x="192" y="586" type="curve" smooth="yes"/>
      <point x="192" y="536" type="line"/>
      <point x="101" y="536" type="line"/>
      <point x="101" y="526" type="line"/>
      <point x="192" y="526" type="line"/>
      <point x="192" y="160" type="line" smooth="yes"/>
      <point x="192" y="37"/>
      <point x="172" y="-5"/>
      <point x="121" y="-5" type="curve" smooth="yes"/>
      <point x="76" y="-5"/>
      <point x="59" y="26"/>
      <point x="59" y="111" type="curve"/>
      <point x="11" y="111"/>
      <point x="-13" y="92"/>
      <point x="-13" y="59" type="curve" smooth="yes"/>
      <point x="-13" y="15"/>
      <point x="30" y="-15"/>
    </contour>
  </outline>
</glyph>
<glyph name="uni023C" format="2">
  <advance width="492"/>
  <unicode hex="023C"/>
  <anchor x="246" y="-207" name="bottom"/>
  <anchor x="246" y="714" name="top"/>
  <anchor x="472" y="536" name="topright"/>
  <outline>
    <contour>
      <point x="165" y="-207" type="line"/>
      <point x="176" y="-207" type="line"/>
      <point x="384" y="714" type="line"/>
      <point x="373" y="714" type="line"/>
    </contour>
    <component base="c"/>
  </outline>
</glyph>
<glyph name="uni0249" format="2">
  <advance width="300"/>
  <unicode hex="0249"/>
  <anchor x="82" y="-240" name="bottom"/>
  <anchor x="152" y="760" name="top"/>
  <anchor x="240" y="760" name="topright"/>
  <outline>
    <contour>
      <point x="-2" y="280" type="line"/>
      <point x="290" y="280" type="line"/>
      <point x="290" y="290" type="line"/>
      <point x="-2" y="290" type="line"/>
    </contour>
    <component base="j"/>
  </outline>
</glyph>
<glyph name="hungarumlaut" format="2">
  <advance width="434"/>
  <unicode hex="02DD"/>
  <outline>
    <contour>
      <point x="40" y="606" type="line"/>
      <point x="50" y="606" type="line"/>
      <point x="102" y="647"/>
      <point x="185" y="721"/>
      <point x="214" y="756" type="curve"/>
      <point x="214" y="766" type="line"/>
      <point x="124" y="766" type="line"/>
      <point x="103" y="721"/>
      <point x="68" y="659"/>
      <point x="40" y="616" type="curve"/>
    </contour>
    <contour>
      <point x="220" y="606" type="line"/>
      <point x="230" y="606" type="line"/>
      <point x="282" y="647"/>
      <point x="365" y="721"/>
      <point x="394" y="756" type="curve"/>
      <point x="394" y="766" type="line"/>
      <point x="304" y="766" type="line"/>
      <point x="283" y="721"/>
      <point x="248" y="659"/>
      <point x="220" y="616" type="curve"/>
    </contour>
  </outline>
</glyph>
<glyph name="uni0469" format="2">
  <advance width="831"/>
  <unicode hex="0469"/>
  <anchor x="416" y="0" name="bottom"/>
  <anchor x="416" y="536" name="top"/>
  <outline>
    <contour>
      <point x="23" y="0" type="line"/>
      <point x="212" y="0" type="line"/>
      <point x="212" y="270" type="line"/>
      <point x="413" y="270" type="line"/>
      <point x="413" y="280" type="line"/>
      <point x="212" y="280" type="line"/>
      <point x="212" y="459" type="line" smooth="yes"/>
      <point x="212" y="518"/>
      <point x="250" y="526"/>
      <point x="294" y="526" type="curve" smooth="yes"/>
      <point x="297" y="526" type="line"/>
      <point x="297" y="536" type="line"/>
      <point x="23" y="536" type="line"/>
      <point x="23" y="526" type="line"/>
      <point x="36" y="526" type="line" smooth="yes"/>
      <point x="80" y="526"/>
      <point x="118" y="517"/>
      <point x="118" y="458" type="curve" smooth="yes"/>
      <point x="118" y="77" type="line" smooth="yes"/>
      <point x="118" y="18"/>
      <point x="80" y="10"/>
      <point x="36" y="10" type="curve" smooth="yes"/>
      <point x="23" y="10" type="line"/>
    </contour>
    <component base="uni0467" xOffset="242"/>
  </outline>
</glyph>
<glyph name="uni048F" format="2">
  <advance width="614"/>
  <unicode hex="048F"/>
  <anchor x="307" y="-240" name="bottom"/>
  <anchor x="307" y="536" name="top"/>
  <anchor x="594" y="536" name="topright"/>
  <outline>
    <contour>
      <point x="497" y="-77" type="line"/>
      <point x="506" y="-71" type="line"/>
      <point x="336" y="169" type="line"/>
      <point x="327" y="163" type="line"/>
    </contour>
    <component base="p"/>
  </outline>
</glyph>
<glyph name="uni04C6" format="2">
  <advance width="628"/>
  <unicode hex="04C6"/>
  <anchor x="304" y="0" name="bottom"/>
  <anchor x="314" y="536" name="top"/>
  <outline>
    <contour>
      <point x="491" y="-210" type="line"/>
      <point x="566" y="-210" type="line"/>
      <point x="605" y="0" type="line"/>
      <point x="605" y="10" type="line"/>
      <point x="595" y="10" type="line"/>
      <point x="595" y="0" type="line"/>
    </contour>
    <component base="afii10077"/>
  </outline>
</glyph>
<glyph name="uni04C9" format="2">
  <advance width="793"/>
  <unicode hex="04C9"/>
  <anchor x="397" y="0" name="bottom"/>
  <anchor x="397" y="714" name="top"/>
  <anchor x="397" y="357" name="center"/>
  <anchor x="773" y="714" name="topright"/>
  <outline>
    <contour>
      <point x="641" y="-210" type="line"/>
      <point x="716" y="-210" type="line"/>
      <point x="755" y="0" type="line"/>
      <point x="755" y="10" type="line"/>
      <point x="745" y="10" type="line"/>
      <point x="745" y="0" type="line"/>
    </contour>
    <component base="H"/>
  </outline>
</glyph>
<glyph name="uni04CA" format="2">
  <advance width="688"/>
  <unicode hex="04CA"/>
  <anchor x="344" y="0" name="bottom"/>
  <anchor x="344" y="536" name="top"/>
  <outline>
    <contour>
      <point x="551" y="-210" type="line"/>
      <point x="626" y="-210" type="line"/>
      <point x="665" y="0" type="line"/>
      <point x="665" y="10" type="line"/>
      <point x="655" y="10" type="line"/>
      <point x="655" y="0" type="line"/>
    </contour>
    <component base="afii10079"/>
  </outline>
</glyph>
<glyph name="uni051E" format="2">
  <advance width="700"/>
  <unicode hex="051E"/>
  <anchor x="350" y="0" name="bottom"/>
  <anchor x="350" y="714" name="top"/>
  <outline>
    <contour>
      <point x="540" y="448" type="line"/>
      <point x="545" y="456" type="line"/>
      <point x="318" y="606" type="line"/>
      <point x="313" y="598" type="line"/>
    </contour>
    <component base="afii10028"/>
  </outline>
</glyph>
<glyph name="uni052D" format="2">
  <advance width="640"/>
  <unicode hex="052D"/>
  <anchor x="320" y="-210" name="bottom"/>
  <anchor x="320" y="536" name="top"/>
  <outline>
    <contour>
      <point x="13" y="-210" type="line"/>
      <point x="23" y="-210" type="line"/>
      <point x="24" y="-180" type="line" smooth="yes"/>
      <point x="28" y="-43"/>
      <point x="64" y="0"/>
      <point x="174" y="0" type="curve" smooth="yes"/>
      <point x="455" y="0" type="line" smooth="yes"/>
      <point x="560" y="0"/>
      <point x="596" y="-43"/>
      <point x="605" y="-180" type="curve" smooth="yes"/>
      <point x="607" y="-210" type="line"/>
      <point x="617" y="-210" type="line"/>
      <point x="617" y="10" type="line"/>
      <point x="564" y="10" type="line" smooth="yes"/>
      <point x="538" y="10"/>
      <point x="522" y="33"/>
      <point x="522" y="73" type="curve" smooth="yes"/>
      <point x="522" y="459" type="line" smooth="yes"/>
      <point x="522" y="518"/>
      <point x="560" y="526"/>
      <point x="604" y="526" type="curve" smooth="yes"/>
      <point x="617" y="526" type="line"/>
      <point x="617" y="536" type="line"/>
      <point x="428" y="536" type="line"/>
      <point x="221" y="223" type="line"/>
      <point x="203" y="236"/>
      <point x="194" y="258"/>
      <point x="194" y="290" type="curve" smooth="yes"/>
      <point x="194" y="459" type="line" smooth="yes"/>
      <point x="194" y="518"/>
      <point x="232" y="526"/>
      <point x="276" y="526" type="curve" smooth="yes"/>
      <point x="279" y="526" type="line"/>
      <point x="279" y="536" type="line"/>
      <point x="15" y="536" type="line"/>
      <point x="15" y="526" type="line"/>
      <point x="18" y="526" type="line" smooth="yes"/>
      <point x="62" y="526"/>
      <point x="100" y="517"/>
      <point x="100" y="458" type="curve" smooth="yes"/>
      <point x="100" y="312" type="line" smooth="yes"/>
      <point x="100" y="247"/>
      <point x="135" y="202"/>
      <point x="197" y="188" type="curve"/>
      <point x="79" y="10" type="line"/>
      <point x="13" y="10" type="line"/>
    </contour>
    <contour>
      <point x="91" y="10" type="line"/>
      <point x="208" y="186" type="line"/>
      <point x="218" y="185"/>
      <point x="228" y="184"/>
      <point x="239" y="184" type="curve" smooth="yes"/>
      <point x="315" y="184"/>
      <point x="364" y="211"/>
      <point x="428" y="251" type="curve"/>
      <point x="428" y="10" type="line"/>
    </contour>
    <contour>
      <point x="274" y="209" type="curve" smooth="yes"/>
      <point x="256" y="209"/>
      <point x="241" y="212"/>
      <point x="229" y="218" type="curve"/>
      <point x="428" y="517" type="line"/>
      <point x="428" y="262" type="line"/>
      <point x="371" y="226"/>
      <point x="322" y="209"/>
    </contour>
  </outline>
</glyph>
<glyph name="uni1AB9" format="2">
  <unicode hex="1AB9"/>
  <anchor x="-422" y="72" name="_bottom"/>
  <anchor x="-422" y="-240" name="bottom"/>
  <outline>
    <contour>
      <point x="-462" y="-235" type="line"/>
      <point x="-362" y="31" type="line"/>
      <point x="-380" y="37" type="line"/>
      <point x="-480" y="-228" type="line"/>
    </contour>
  </outline>
</glyph>
<glyph name="uni1ABA" format="2">
  <unicode hex="1ABA"/>
  <anchor x="-438" y="72" name="_bottom"/>
  <anchor x="-438" y="-280" name="bottom"/>
  <outline>
    <contour>
      <point x="-462" y="-235" type="line"/>
      <point x="-362" y="31" type="line"/>
      <point x="-380" y="37" type="line"/>
      <point x="-480" y="-228" type="line"/>
    </contour>
    <contour>
      <point x="-470" y="-280" type="curve" smooth="yes"/>
      <point x="-441" y="-280"/>
      <point x="-421" y="-258"/>
      <point x="-421" y="-223" type="curve" smooth="yes"/>
      <point x="-421" y="-188"/>
      <point x="-441" y="-166"/>
      <point x="-470" y="-166" type="curve" smooth="yes"/>
      <point x="-499" y="-166"/>
      <point x="-519" y="-188"/>
      <point x="-519" y="-223" type="curve" smooth="yes"/>
      <point x="-519" y="-258"/>
      <point x="-499" y="-280"/>
    </contour>
  </outline>
</glyph>
<glyph name="uni1ABF" format="2">
  <unicode hex="1ABF"/>
  <anchor x="0" y="0" name="_bottom"/>
  <outline>
    <contour>
      <point x="-161" y="-89" type="curve" smooth="yes"/>
      <point x="-99" y="-278" type="line"/>
      <point x="-65" y="-278" type="line"/>
      <point x="-9" y="-88" type="line"/>
      <point x="61" y="-278" type="line"/>
      <point x="97" y="-278" type="line"/>
      <point x="149" y="-99" type="line" smooth="yes"/>
      <point x="155" y="-75"/>
      <point x="166" y="-68"/>
      <point x="183" y="-68" type="curve" smooth="yes"/>
      <point x="194" y="-68" type="line"/>
      <point x="194" y="-64" type="line"/>
      <point x="98" y="-64" type="line"/>
      <point x="98" y="-68" type="line"/>
      <point x="114" y="-68" type="line" smooth="yes"/>
      <point x="138" y="-68"/>
      <point x="146" y="-72"/>
      <point x="146" y="-84" type="curve" smooth="yes"/>
      <point x="146" y="-89"/>
      <point x="145" y="-96"/>
      <point x="142" y="-104" type="curve" smooth="yes"/>
      <point x="113" y="-204" type="line" smooth="yes"/>
      <point x="108" y="-224"/>
      <point x="102" y="-244"/>
      <point x="96" y="-264" type="curve"/>
      <point x="95" y="-264" type="line"/>
      <point x="88" y="-243"/>
      <point x="80" y="-223"/>
      <point x="72" y="-202" type="curve" smooth="yes"/>
      <point x="21" y="-65" type="line"/>
      <point x="-8" y="-65" type="line"/>
      <point x="-47" y="-200" type="line" smooth="yes"/>
      <point x="-54" y="-220"/>
      <point x="-59" y="-240"/>
      <point x="-65" y="-260" type="curve"/>
      <point x="-66" y="-260" type="line"/>
      <point x="-72" y="-240"/>
      <point x="-78" y="-221"/>
      <point x="-84" y="-201" type="curve" smooth="yes"/>
      <point x="-115" y="-102" type="line" smooth="yes"/>
      <point x="-117" y="-94"/>
      <point x="-119" y="-87"/>
      <point x="-119" y="-82" type="curve" smooth="yes"/>
      <point x="-119" y="-72"/>
      <point x="-112" y="-68"/>
      <point x="-91" y="-68" type="curve" smooth="yes"/>
      <point x="-81" y="-68" type="line"/>
      <point x="-81" y="-64" type="line"/>
      <point x="-193" y="-64" type="line"/>
      <point x="-193" y="-68" type="line"/>
      <point x="-188" y="-68" type="line" smooth="yes"/>
      <point x="-174" y="-68"/>
      <point x="-166" y="-73"/>
    </contour>
  </outline>
</glyph>
<glyph name="uni1AC0" format="2">
  <unicode hex="1AC0"/>
  <anchor x="0" y="0" name="_bottom"/>
  <outline>
    <contour>
      <point x="161" y="-253" type="curve" smooth="yes"/>
      <point x="99" y="-64" type="line"/>
      <point x="65" y="-64" type="line"/>
      <point x="9" y="-254" type="line"/>
      <point x="-61" y="-64" type="line"/>
      <point x="-97" y="-64" type="line"/>
      <point x="-149" y="-243" type="line" smooth="yes"/>
      <point x="-155" y="-267"/>
      <point x="-166" y="-274"/>
      <point x="-183" y="-274" type="curve" smooth="yes"/>
      <point x="-194" y="-274" type="line"/>
      <point x="-194" y="-278" type="line"/>
      <point x="-98" y="-278" type="line"/>
      <point x="-98" y="-274" type="line"/>
      <point x="-114" y="-274" type="line" smooth="yes"/>
      <point x="-138" y="-274"/>
      <point x="-146" y="-270"/>
      <point x="-146" y="-258" type="curve" smooth="yes"/>
      <point x="-146" y="-253"/>
      <point x="-145" y="-246"/>
      <point x="-142" y="-238" type="curve" smooth="yes"/>
      <point x="-113" y="-138" type="line" smooth="yes"/>
      <point x="-108" y="-118"/>
      <point x="-102" y="-98"/>
      <point x="-96" y="-78" type="curve"/>
      <point x="-95" y="-78" type="line"/>
      <point x="-88" y="-99"/>
      <point x="-80" y="-119"/>
      <point x="-72" y="-140" type="curve" smooth="yes"/>
      <point x="-21" y="-277" type="line"/>
      <point x="8" y="-277" type="line"/>
      <point x="47" y="-142" type="line" smooth="yes"/>
      <point x="54" y="-122"/>
      <point x="59" y="-102"/>
      <point x="65" y="-82" type="curve"/>
      <point x="66" y="-82" type="line"/>
      <point x="72" y="-102"/>
      <point x="78" y="-121"/>
      <point x="84" y="-141" type="curve" smooth="yes"/>
      <point x="115" y="-240" type="line" smooth="yes"/>
      <point x="117" y="-248"/>
      <point x="119" y="-255"/>
      <point x="119" y="-260" type="curve" smooth="yes"/>
      <point x="119" y="-270"/>
      <point x="112" y="-274"/>
      <point x="91" y="-274" type="curve" smooth="yes"/>
      <point x="81" y="-274" type="line"/>
      <point x="81" y="-278" type="line"/>
      <point x="193" y="-278" type="line"/>
      <point x="193" y="-274" type="line"/>
      <point x="188" y="-274" type="line" smooth="yes"/>
      <point x="174" y="-274"/>
      <point x="166" y="-269"/>
    </contour>
  </outline>
</glyph>
<glyph name="uni1D09" format="2">
  <advance width="310"/>
  <unicode hex="1D09"/>
  <anchor x="155" y="-183" name="bottom"/>
  <anchor x="155" y="536" name="top"/>
  <outline>
    <contour>
      <point x="37" y="0" type="line"/>
      <point x="273" y="0" type="line"/>
      <point x="273" y="10" type="line"/>
      <point x="256" y="10" type="line" smooth="yes"/>
      <point x="225" y="10"/>
      <point x="200" y="16"/>
      <point x="200" y="58" type="curve" smooth="yes"/>
      <point x="200" y="478" type="line" smooth="yes"/>
      <point x="200" y="519"/>
      <point x="225" y="526"/>
      <point x="256" y="526" type="curve" smooth="yes"/>
      <point x="273" y="526" type="line"/>
      <point x="273" y="536" type="line"/>
      <point x="37" y="536" type="line"/>
      <point x="37" y="526" type="line"/>
      <point x="53" y="526" type="line" smooth="yes"/>
      <point x="85" y="526"/>
      <point x="109" y="519"/>
      <point x="109" y="478" type="curve" smooth="yes"/>
      <point x="109" y="58" type="line" smooth="yes"/>
      <point x="109" y="16"/>
      <point x="85" y="10"/>
      <point x="53" y="10" type="curve" smooth="yes"/>
      <point x="37" y="10" type="line"/>
    </contour>
    <contour>
      <point x="152" y="-183" type="curve" smooth="yes"/>
      <point x="179" y="-183"/>
      <point x="201" y="-167"/>
      <point x="201" y="-121" type="curve" smooth="yes"/>
      <point x="201" y="-74"/>
      <point x="179" y="-59"/>
      <point x="152" y="-59" type="curve" smooth="yes"/>
      <point x="124" y="-59"/>
      <point x="103" y="-74"/>
      <point x="103" y="-121" type="curve" smooth="yes"/>
      <point x="103" y="-167"/>
      <point x="124" y="-183"/>
    </contour>
  </outline>
</glyph>
<glyph name="uni1D24" format="2">
  <advance width="450"/>
  <unicode hex="1D24"/>
  <anchor x="225" y="0" name="bottom"/>
  <anchor x="225" y="536" name="top"/>
  <outline>
    <contour>
      <point x="241" y="-7" type="curve" smooth="yes"/>
      <point x="360" y="-7"/>
      <point x="410" y="42"/>
      <point x="410" y="79" type="curve" smooth="yes"/>
      <point x="410" y="97"/>
      <point x="397" y="111"/>
      <point x="380" y="116" type="curve"/>
      <point x="367" y="46"/>
      <point x="308" y="3"/>
      <point x="240" y="3" type="curve" smooth="yes"/>
      <point x="173" y="3"/>
      <point x="129" y="45"/>
      <point x="129" y="114" type="curve" smooth="yes"/>
      <point x="129" y="181"/>
      <point x="169" y="200"/>
      <point x="220" y="211" type="curve"/>
      <point x="220" y="246" type="line"/>
      <point x="318" y="257"/>
      <point x="396" y="306"/>
      <point x="396" y="404" type="curve" smooth="yes"/>
      <point x="396" y="483"/>
      <point x="344" y="543"/>
      <point x="230" y="543" type="curve" smooth="yes"/>
      <point x="126" y="543"/>
      <point x="73" y="497"/>
      <point x="73" y="451" type="curve" smooth="yes"/>
      <point x="73" y="417"/>
      <point x="101" y="399"/>
      <point x="147" y="399" type="curve"/>
      <point x="147" y="495"/>
      <point x="178" y="533"/>
      <point x="235" y="533" type="curve" smooth="yes"/>
      <point x="288" y="533"/>
      <point x="320" y="499"/>
      <point x="320" y="439" type="curve" smooth="yes"/>
      <point x="320" y="369"/>
      <point x="275" y="344"/>
      <point x="220" y="333" type="curve"/>
      <point x="220" y="296" type="line"/>
      <point x="127" y="279"/>
      <point x="51" y="237"/>
      <point x="51" y="138" type="curve" smooth="yes"/>
      <point x="51" y="51"/>
      <point x="114" y="-7"/>
    </contour>
  </outline>
</glyph>
<glyph name="uni1D72" format="2">
  <advance width="471"/>
  <unicode hex="1D72"/>
  <anchor x="166" y="0" name="bottom"/>
  <anchor x="246" y="536" name="top"/>
  <anchor x="481" y="536" name="topright"/>
  <outline>
    <contour>
      <point x="-11" y="216" type="curve"/>
      <point x="-1" y="216" type="line"/>
      <point x="5" y="243"/>
      <point x="10" y="269"/>
      <point x="54" y="269" type="curve" smooth="yes"/>
      <point x="125" y="269"/>
      <point x="181" y="206"/>
      <point x="249" y="206" type="curve" smooth="yes"/>
      <point x="315" y="206"/>
      <point x="339" y="267"/>
      <point x="345" y="324" type="curve"/>
      <point x="335" y="324" type="line"/>
      <point x="329" y="295"/>
      <point x="321" y="271"/>
      <point x="280" y="271" type="curve" smooth="yes"/>
      <point x="210" y="271"/>
      <point x="153" y="334"/>
      <point x="85" y="334" type="curve" smooth="yes"/>
      <point x="20" y="334"/>
      <point x="-5" y="275"/>
    </contour>
    <component base="r"/>
  </outline>
</glyph>
<glyph name="uni1D7A" format="2">
  <advance width="964"/>
  <unicode hex="1D7A"/>
  <anchor x="216" y="0" name="bottom_1"/>
  <anchor x="650" y="0" name="bottom_2"/>
  <anchor x="176" y="268" name="center_1"/>
  <anchor x="650" y="268" name="center_2"/>
  <anchor x="156" y="659" name="top_1"/>
  <anchor x="650" y="760" name="top_2"/>
  <anchor x="192" y="970" name="topright_1"/>
  <anchor x="877" y="760" name="topright_2"/>
  <outline>
    <contour>
      <point x="38" y="-110" type="line"/>
      <point x="51" y="-110" type="line"/>
      <point x="699" y="760" type="line"/>
      <point x="686" y="760" type="line"/>
    </contour>
    <component base="t"/>
    <component base="h" xOffset="332"/>
  </outline>
</glyph>
<glyph name="uni1D7C" format="2">
  <advance width="334"/>
  <unicode hex="1D7C"/>
  <anchor x="167" y="0" name="bottom"/>
  <anchor x="167" y="536" name="top"/>
  <outline>
    <contour>
      <point x="10" y="280" type="line"/>
      <point x="300" y="280" type="line"/>
      <point x="300" y="290" type="line"/>
      <point x="10" y="290" type="line"/>
    </contour>
    <component base="iotaLatin"/>
  </outline>
</glyph>
<glyph name="uni1D7F" format="2">
  <advance width="577"/>
  <unicode hex="1D7F"/>
  <anchor x="293" y="0" name="bottom"/>
  <anchor x="293" y="536" name="top"/>
  <outline>
    <contour>
      <point x="6" y="270" type="line"/>
      <point x="571" y="270" type="line"/>
      <point x="571" y="280" type="line"/>
      <point x="6" y="280" type="line"/>
    </contour>
    <component base="uni028A"/>
  </outline>
</glyph>
<glyph name="uni1D92" format="2">
  <advance width="535"/>
  <unicode hex="1D92"/>
  <anchor x="278" y="0" name="bottom"/>
  <anchor x="278" y="536" name="top"/>
  <anchor x="515" y="536" name="topright"/>
  <outline>
    <contour>
      <point x="538" y="-197" type="curve" smooth="yes"/>
      <point x="580" y="-197"/>
      <point x="610" y="-178"/>
      <point x="610" y="-142" type="curve" smooth="yes"/>
      <point x="610" y="-126"/>
      <point x="604" y="-114"/>
      <point x="595" y="-105" type="curve"/>
      <point x="579" y="-116"/>
      <point x="566" y="-121"/>
      <point x="539" y="-121" type="curve" smooth="yes"/>
      <point x="487" y="-121"/>
      <point x="463" y="-103"/>
      <point x="463" y="-49" type="curve" smooth="yes"/>
      <point x="463" y="89" type="line"/>
      <point x="453" y="89" type="line"/>
      <point x="453" y="-59" type="line" smooth="yes"/>
      <point x="453" y="-143"/>
      <point x="459" y="-197"/>
    </contour>
    <component base="e"/>
  </outline>
</glyph>
<glyph name="uni1D94" format="2">
  <advance width="489"/>
  <unicode hex="1D94"/>
  <anchor x="225" y="0" name="bottom"/>
  <anchor x="225" y="536" name="top"/>
  <outline>
    <contour>
      <point x="125" y="-197" type="curve" smooth="yes"/>
      <point x="167" y="-197"/>
      <point x="197" y="-178"/>
      <point x="197" y="-142" type="curve" smooth="yes"/>
      <point x="197" y="-126"/>
      <point x="191" y="-114"/>
      <point x="182" y="-105" type="curve"/>
      <point x="166" y="-116"/>
      <point x="153" y="-121"/>
      <point x="126" y="-121" type="curve" smooth="yes"/>
      <point x="74" y="-121"/>
      <point x="50" y="-103"/>
      <point x="50" y="-49" type="curve" smooth="yes"/>
      <point x="50" y="88" type="line"/>
      <point x="40" y="88" type="line"/>
      <point x="40" y="-59" type="line" smooth="yes"/>
      <point x="40" y="-143"/>
      <point x="46" y="-197"/>
    </contour>
    <component base="afii10073"/>
  </outline>
</glyph>
<glyph name="uni1D99" format="2">
  <advance width="635"/>
  <unicode hex="1D99"/>
  <anchor x="318" y="0" name="bottom"/>
  <anchor x="318" y="536" name="top"/>
  <anchor x="595" y="536" name="topright"/>
  <outline>
    <contour>
      <point x="687" y="-197" type="curve" smooth="yes"/>
      <point x="729" y="-197"/>
      <point x="759" y="-178"/>
      <point x="759" y="-142" type="curve" smooth="yes"/>
      <point x="759" y="-126"/>
      <point x="753" y="-114"/>
      <point x="744" y="-105" type="curve"/>
      <point x="728" y="-116"/>
      <point x="715" y="-121"/>
      <point x="688" y="-121" type="curve" smooth="yes"/>
      <point x="636" y="-121"/>
      <point x="612" y="-103"/>
      <point x="612" y="-49" type="curve" smooth="yes"/>
      <point x="612" y="10" type="line"/>
      <point x="602" y="10" type="line"/>
      <point x="602" y="-59" type="line" smooth="yes"/>
      <point x="602" y="-143"/>
      <point x="608" y="-197"/>
    </contour>
    <component base="u"/>
  </outline>
</glyph>
<glyph name="uni1FEF" format="2">
  <unicode hex="1FEF"/>
  <anchor x="91" y="536" name="_top"/>
  <anchor x="91" y="760" name="top"/>
  <outline>
    <contour>
      <point x="140" y="606" type="curve"/>
      <point x="150" y="606" type="line"/>
      <point x="150" y="616" type="line"/>
      <point x="134" y="654"/>
      <point x="114" y="717"/>
      <point x="106" y="760" type="curve"/>
      <point x="31" y="760" type="line"/>
      <point x="31" y="750" type="line"/>
      <point x="47" y="718"/>
      <point x="105" y="644"/>
    </contour>
  </outline>
</glyph>
<glyph name="uni1FFD" format="2">
  <advance width="254"/>
  <unicode hex="1FFD"/>
  <anchor x="144" y="536" name="_top"/>
  <anchor x="144" y="760" name="top"/>
  <outline>
    <contour>
      <point x="84" y="606" type="line"/>
      <point x="94" y="606" type="line"/>
      <point x="129" y="644"/>
      <point x="187" y="718"/>
      <point x="203" y="750" type="curve"/>
      <point x="203" y="760" type="line"/>
      <point x="128" y="760" type="line"/>
      <point x="120" y="717"/>
      <point x="100" y="654"/>
      <point x="84" y="616" type="curve"/>
    </contour>
  </outline>
</glyph>
<glyph name="plussuperior" format="2">
  <advance width="393"/>
  <unicode hex="207A"/>
  <outline>
    <contour>
      <point x="186" y="330" type="line"/>
      <point x="206" y="330" type="line"/>
      <point x="206" y="472" type="line"/>
      <point x="349" y="472" type="line"/>
      <point x="349" y="492" type="line"/>
      <point x="206" y="492" type="line"/>
      <point x="206" y="633" type="line"/>
      <point x="186" y="633" type="line"/>
      <point x="186" y="492" type="line"/>
      <point x="44" y="492" type="line"/>
      <point x="44" y="472" type="line"/>
      <point x="186" y="472" type="line"/>
    </contour>
  </outline>
</glyph>
<glyph name="minussuperior" format="2">
  <advance width="393"/>
  <unicode hex="207B"/>
  <outline>
    <contour>
      <point x="44" y="470" type="line"/>
      <point x="349" y="470" type="line"/>
      <point x="349" y="490" type="line"/>
      <point x="44" y="490" type="line"/>
    </contour>
  </outline>
</glyph>
<glyph name="parenleftsuperior" format="2">
  <advance width="250"/>
  <unicode hex="207D"/>
  <outline>
    <contour>
      <point x="229" y="196" type="curve"/>
      <point x="229" y="206" type="line"/>
      <point x="135" y="269"/>
      <point x="121" y="335"/>
      <point x="121" y="491" type="curve" smooth="yes"/>
      <point x="121" y="644"/>
      <point x="135" y="714"/>
      <point x="229" y="778" type="curve"/>
      <point x="229" y="788" type="line"/>
      <point x="93" y="737"/>
      <point x="33" y="674"/>
      <point x="33" y="491" type="curve" smooth="yes"/>
      <point x="33" y="302"/>
      <point x="85" y="247"/>
    </contour>
  </outline>
</glyph>
<glyph name="parenrightsuperior" format="2">
  <advance width="250"/>
  <unicode hex="207E"/>
  <outline>
    <contour>
      <point x="21" y="196" type="line"/>
      <point x="157" y="248"/>
      <point x="217" y="306"/>
      <point x="217" y="496" type="curve" smooth="yes"/>
      <point x="217" y="686"/>
      <point x="159" y="739"/>
      <point x="21" y="788" type="curve"/>
      <point x="21" y="778" type="line"/>
      <point x="115" y="715"/>
      <point x="129" y="649"/>
      <point x="129" y="496" type="curve" smooth="yes"/>
      <point x="129" y="340"/>
      <point x="115" y="270"/>
      <point x="21" y="206" type="curve"/>
    </contour>
  </outline>
</glyph>
<glyph name="uni20A9" format="2">
  <advance width="1047"/>
  <unicode hex="20A9"/>
  <outline>
    <contour>
      <point x="291" y="0" type="line"/>
      <point x="353" y="0" type="line"/>
      <point x="428" y="304" type="line"/>
      <point x="598" y="304" type="line"/>
      <point x="699" y="0" type="line"/>
      <point x="759" y="0" type="line"/>
      <point x="840" y="304" type="line"/>
      <point x="1037" y="304" type="line"/>
      <point x="1037" y="314" type="line"/>
      <point x="842" y="314" type="line"/>
      <point x="871" y="421" type="line"/>
      <point x="1037" y="421" type="line"/>
      <point x="1037" y="431" type="line"/>
      <point x="873" y="431" type="line"/>
      <point x="925" y="626" type="line" smooth="yes"/>
      <point x="941" y="685"/>
      <point x="959" y="704"/>
      <point x="1001" y="704" type="curve" smooth="yes"/>
      <point x="1030" y="704" type="line"/>
      <point x="1030" y="714" type="line"/>
      <point x="816" y="714" type="line"/>
      <point x="816" y="704" type="line"/>
      <point x="849" y="704" type="line" smooth="yes"/>
      <point x="896" y="704"/>
      <point x="917" y="692"/>
      <point x="917" y="656" type="curve" smooth="yes"/>
      <point x="917" y="642"/>
      <point x="914" y="625"/>
      <point x="908" y="603" type="curve" smooth="yes"/>
      <point x="863" y="431" type="line"/>
      <point x="654" y="431" type="line"/>
      <point x="561" y="707" type="line"/>
      <point x="519" y="707" type="line"/>
      <point x="449" y="431" type="line"/>
      <point x="266" y="431" type="line"/>
      <point x="209" y="619" type="line" smooth="yes"/>
      <point x="204" y="637"/>
      <point x="202" y="647"/>
      <point x="202" y="662" type="curve" smooth="yes"/>
      <point x="202" y="694"/>
      <point x="216" y="704"/>
      <point x="261" y="704" type="curve" smooth="yes"/>
      <point x="284" y="704" type="line"/>
      <point x="284" y="714" type="line"/>
      <point x="9" y="714" type="line"/>
      <point x="9" y="704" type="line"/>
      <point x="22" y="704" type="line" smooth="yes"/>
      <point x="64" y="704"/>
      <point x="81" y="691"/>
      <point x="93" y="651" type="curve" smooth="yes"/>
      <point x="160" y="431" type="line"/>
      <point x="10" y="431" type="line"/>
      <point x="10" y="421" type="line"/>
      <point x="163" y="421" type="line"/>
      <point x="195" y="314" type="line"/>
      <point x="10" y="314" type="line"/>
      <point x="10" y="304" type="line"/>
      <point x="199" y="304" type="line"/>
    </contour>
    <contour>
      <point x="361" y="80" type="line"/>
      <point x="305" y="304" type="line"/>
      <point x="416" y="304" type="line"/>
    </contour>
    <contour>
      <point x="302" y="314" type="line"/>
      <point x="269" y="421" type="line"/>
      <point x="446" y="421" type="line"/>
      <point x="419" y="314" type="line"/>
    </contour>
    <contour>
      <point x="767" y="68" type="line"/>
      <point x="697" y="304" type="line"/>
      <point x="829" y="304" type="line"/>
    </contour>
    <contour>
      <point x="431" y="314" type="line"/>
      <point x="457" y="421" type="line"/>
      <point x="559" y="421" type="line"/>
      <point x="595" y="314" type="line"/>
    </contour>
    <contour>
      <point x="460" y="431" type="line"/>
      <point x="501" y="597" type="line"/>
      <point x="556" y="431" type="line"/>
    </contour>
    <contour>
      <point x="694" y="314" type="line"/>
      <point x="657" y="421" type="line"/>
      <point x="860" y="421" type="line"/>
      <point x="832" y="314" type="line"/>
    </contour>
  </outline>
</glyph>
<glyph name="Euro" format="2">
  <advance width="559"/>
  <unicode hex="20AC"/>
  <outline>
    <contour>
      <point x="372" y="-10" type="curve" smooth="yes"/>
      <point x="477" y="-10"/>
      <point x="524" y="40"/>
      <point x="524" y="80" type="curve" smooth="yes"/>
      <point x="524" y="98"/>
      <point x="515" y="107"/>
      <point x="506" y="109" type="curve"/>
      <point x="492" y="28"/>
      <point x="447" y="0"/>
      <point x="383" y="0" type="curve" smooth="yes"/>
      <point x="271" y="0"/>
      <point x="217" y="87"/>
      <point x="207" y="286" type="curve"/>
      <point x="378" y="286" type="line"/>
      <point x="378" y="296" type="line"/>
      <point x="207" y="296" type="line"/>
      <point x="206" y="314"/>
      <point x="206" y="333"/>
      <point x="206" y="353" type="curve" smooth="yes"/>
      <point x="206" y="370"/>
      <point x="206" y="387"/>
      <point x="207" y="403" type="curve"/>
      <point x="418" y="403" type="line"/>
      <point x="418" y="413" type="line"/>
      <point x="207" y="413" type="line"/>
      <point x="214" y="631"/>
      <point x="259" y="712"/>
      <point x="348" y="712" type="curve" smooth="yes"/>
      <point x="419" y="712"/>
      <point x="443" y="660"/>
      <point x="443" y="558" type="curve"/>
      <point x="499" y="558"/>
      <point x="530" y="575"/>
      <point x="530" y="621" type="curve" smooth="yes"/>
      <point x="530" y="680"/>
      <point x="462" y="722"/>
      <point x="361" y="722" type="curve" smooth="yes"/>
      <point x="204" y="722"/>
      <point x="124" y="618"/>
      <point x="111" y="413" type="curve"/>
      <point x="41" y="413" type="line"/>
      <point x="41" y="403" type="line"/>
      <point x="110" y="403" type="line"/>
      <point x="109" y="387"/>
      <point x="109" y="370"/>
      <point x="109" y="352" type="curve" smooth="yes"/>
      <point x="109" y="333"/>
      <point x="110" y="314"/>
      <point x="111" y="296" type="curve"/>
      <point x="41" y="296" type="line"/>
      <point x="41" y="286" type="line"/>
      <point x="112" y="286" type="line"/>
      <point x="128" y="101"/>
      <point x="217" y="-10"/>
    </contour>
  </outline>
</glyph>
<glyph name="uni20AE" format="2">
  <advance width="613"/>
  <unicode hex="20AE"/>
  <anchor x="307" y="0" name="bottom"/>
  <anchor x="307" y="357" name="center"/>
  <anchor x="307" y="714" name="top"/>
  <anchor x="613" y="714" name="topright"/>
  <outline>
    <contour>
      <point x="112" y="310" type="line"/>
      <point x="489" y="475" type="line"/>
      <point x="485" y="484" type="line"/>
      <point x="108" y="319" type="line"/>
    </contour>
    <contour>
      <point x="112" y="162" type="line"/>
      <point x="489" y="327" type="line"/>
      <point x="485" y="336" type="line"/>
      <point x="108" y="171" type="line"/>
    </contour>
    <component base="T"/>
  </outline>
</glyph>
<glyph name="uni20B4" format="2">
  <advance width="544"/>
  <unicode hex="20B4"/>
  <anchor x="270" y="0" name="bottom"/>
  <anchor x="270" y="714" name="top"/>
  <anchor x="18" y="714" name="topright"/>
  <outline>
    <contour>
      <point x="284" y="-10" type="curve" smooth="yes"/>
      <point x="416" y="-10"/>
      <point x="494" y="49"/>
      <point x="494" y="128" type="curve" smooth="yes"/>
      <point x="494" y="173"/>
      <point x="468" y="198"/>
      <point x="422" y="198" type="curve"/>
      <point x="421" y="67"/>
      <point x="375" y="0"/>
      <point x="277" y="0" type="curve" smooth="yes"/>
      <point x="192" y="0"/>
      <point x="134" y="50"/>
      <point x="134" y="148" type="curve" smooth="yes"/>
      <point x="134" y="238"/>
      <point x="181" y="266"/>
      <point x="299" y="321" type="curve" smooth="yes"/>
      <point x="383" y="360"/>
      <point x="483" y="408"/>
      <point x="483" y="540" type="curve" smooth="yes"/>
      <point x="483" y="660"/>
      <point x="400" y="724"/>
      <point x="272" y="724" type="curve" smooth="yes"/>
      <point x="155" y="724"/>
      <point x="77" y="671"/>
      <point x="77" y="609" type="curve" smooth="yes"/>
      <point x="77" y="570"/>
      <point x="109" y="547"/>
      <point x="156" y="547" type="curve"/>
      <point x="156" y="657"/>
      <point x="189" y="714"/>
      <point x="273" y="714" type="curve" smooth="yes"/>
      <point x="350" y="714"/>
      <point x="400" y="667"/>
      <point x="400" y="576" type="curve" smooth="yes"/>
      <point x="400" y="478"/>
      <point x="347" y="449"/>
      <point x="236" y="398" type="curve" smooth="yes"/>
      <point x="136" y="352"/>
      <point x="49" y="310"/>
      <point x="49" y="187" type="curve" smooth="yes"/>
      <point x="49" y="65"/>
      <point x="135" y="-10"/>
    </contour>
    <contour>
      <point x="10" y="309" type="line"/>
      <point x="534" y="309" type="line"/>
      <point x="534" y="319" type="line"/>
      <point x="10" y="319" type="line"/>
    </contour>
    <contour>
      <point x="10" y="429" type="line"/>
      <point x="534" y="429" type="line"/>
      <point x="534" y="440" type="line"/>
      <point x="10" y="440" type="line"/>
    </contour>
  </outline>
</glyph>
<glyph name="response" format="2">
  <advance width="656"/>
  <unicode hex="211F"/>
  <anchor x="328" y="0" name="bottom"/>
  <anchor x="328" y="714" name="top"/>
  <anchor x="636" y="714" name="topright"/>
  <outline>
    <contour>
      <point x="138" y="-121" type="line"/>
      <point x="149" y="-121" type="line"/>
      <point x="461" y="797" type="line"/>
      <point x="241" y="873" type="line"/>
      <point x="237" y="863" type="line"/>
      <point x="449" y="791" type="line"/>
    </contour>
    <component base="R"/>
  </outline>
</glyph>
<glyph name="uni2C60" format="2">
  <advance width="593"/>
  <unicode hex="2C60"/>
  <anchor x="297" y="0" name="bottom"/>
  <anchor x="297" y="714" name="top"/>
  <anchor x="312" y="357" name="center"/>
  <anchor x="603" y="714" name="topright"/>
  <outline>
    <contour>
      <point x="10" y="421" type="line"/>
      <point x="383" y="421" type="line"/>
      <point x="383" y="431" type="line"/>
      <point x="10" y="431" type="line"/>
    </contour>
    <contour>
      <point x="10" y="304" type="line"/>
      <point x="383" y="304" type="line"/>
      <point x="383" y="314" type="line"/>
      <point x="10" y="314" type="line"/>
    </contour>
    <component base="L"/>
  </outline>
</glyph>
<glyph name="palmbranch" format="2">
  <advance width="750"/>
  <unicode hex="2E19"/>
  <outline>
    <contour>
      <point x="217" y="4" type="curve"/>
      <point x="270" y="98" type="line"/>
      <point x="272" y="97"/>
      <point x="279" y="96"/>
      <point x="291" y="96" type="curve" smooth="yes"/>
      <point x="306" y="96"/>
      <point x="328" y="98"/>
      <point x="354" y="103" type="curve" smooth="yes"/>
      <point x="386" y="109"/>
      <point x="440" y="124"/>
      <point x="440" y="145" type="curve" smooth="yes"/>
      <point x="440" y="149"/>
      <point x="438" y="155"/>
      <point x="427" y="155" type="curve" smooth="yes"/>
      <point x="407" y="155"/>
      <point x="354" y="135"/>
      <point x="309" y="135" type="curve" smooth="yes"/>
      <point x="302" y="135"/>
      <point x="295" y="135"/>
      <point x="289" y="136" type="curve"/>
      <point x="303" y="157" type="line"/>
      <point x="343" y="170"/>
      <point x="349" y="171"/>
      <point x="403" y="179" type="curve" smooth="yes"/>
      <point x="429" y="183"/>
      <point x="468" y="189"/>
      <point x="468" y="212" type="curve" smooth="yes"/>
      <point x="468" y="221"/>
      <point x="456" y="224"/>
      <point x="445" y="224" type="curve" smooth="yes"/>
      <point x="410" y="224"/>
      <point x="330" y="195"/>
      <point x="321" y="191" type="curve"/>
      <point x="339" y="220" type="line"/>
      <point x="379" y="229"/>
      <point x="486" y="259"/>
      <point x="486" y="282" type="curve" smooth="yes"/>
      <point x="486" y="287"/>
      <point x="481" y="291"/>
      <point x="474" y="291" type="curve" smooth="yes"/>
      <point x="452" y="291"/>
      <point x="387" y="261"/>
      <point x="361" y="261" type="curve"/>
      <point x="381" y="297" type="line"/>
      <point x="451" y="309" type="line" smooth="yes"/>
      <point x="507" y="319"/>
      <point x="518" y="329"/>
      <point x="518" y="339" type="curve" smooth="yes"/>
      <point x="518" y="348"/>
      <point x="509" y="351"/>
      <point x="502" y="351" type="curve" smooth="yes"/>
      <point x="483" y="351"/>
      <point x="439" y="330"/>
      <point x="403" y="330" type="curve"/>
      <point x="424" y="365" type="line"/>
      <point x="434" y="368"/>
      <point x="449" y="371"/>
      <point x="491" y="380" type="curve" smooth="yes"/>
      <point x="540" y="391"/>
      <point x="548" y="401"/>
      <point x="548" y="408" type="curve" smooth="yes"/>
      <point x="548" y="414"/>
      <point x="543" y="418"/>
      <point x="532" y="418" type="curve" smooth="yes"/>
      <point x="507" y="418"/>
      <point x="449" y="393"/>
      <point x="439" y="393" type="curve"/>
      <point x="454" y="417" type="line"/>
      <point x="464" y="421"/>
      <point x="499" y="433"/>
      <point x="538" y="444" type="curve" smooth="yes"/>
      <point x="563" y="451"/>
      <point x="575" y="458"/>
      <point x="575" y="470" type="curve" smooth="yes"/>
      <point x="575" y="481"/>
      <point x="565" y="482"/>
      <point x="561" y="482" type="curve" smooth="yes"/>
      <point x="542" y="482"/>
      <point x="503" y="464"/>
      <point x="481" y="464" type="curve"/>
      <point x="503" y="501" type="line"/>
      <point x="530" y="502"/>
      <point x="584" y="537"/>
      <point x="584" y="551" type="curve" smooth="yes"/>
      <point x="584" y="554"/>
      <point x="581" y="562"/>
      <point x="571" y="562" type="curve" smooth="yes"/>
      <point x="555" y="562"/>
      <point x="543" y="539"/>
      <point x="517" y="535" type="curve"/>
      <point x="535" y="563"/>
      <point x="554" y="581"/>
      <point x="554" y="593" type="curve" smooth="yes"/>
      <point x="554" y="598"/>
      <point x="550" y="605"/>
      <point x="541" y="605" type="curve" smooth="yes"/>
      <point x="519" y="605"/>
      <point x="501" y="567"/>
      <point x="496" y="550" type="curve"/>
      <point x="493" y="553"/>
      <point x="492" y="560"/>
      <point x="492" y="573" type="curve" smooth="yes"/>
      <point x="492" y="583"/>
      <point x="491" y="592"/>
      <point x="484" y="592" type="curve" smooth="yes"/>
      <point x="477" y="592"/>
      <point x="469" y="584"/>
      <point x="469" y="567" type="curve" smooth="yes"/>
      <point x="469" y="557"/>
      <point x="472" y="526"/>
      <point x="474" y="516" type="curve"/>
      <point x="462" y="497" type="line"/>
      <point x="452" y="518"/>
      <point x="451" y="537"/>
      <point x="451" y="549" type="curve" smooth="yes"/>
      <point x="451" y="563"/>
      <point x="451" y="574"/>
      <point x="444" y="574" type="curve" smooth="yes"/>
      <point x="438" y="574"/>
      <point x="427" y="567"/>
      <point x="427" y="541" type="curve" smooth="yes"/>
      <point x="427" y="516"/>
      <point x="437" y="482"/>
      <point x="442" y="469" type="curve"/>
      <point x="423" y="439" type="line"/>
      <point x="421" y="440"/>
      <point x="408" y="481"/>
      <point x="406" y="513" type="curve"/>
      <point x="405" y="524"/>
      <point x="404" y="534"/>
      <point x="393" y="534" type="curve" smooth="yes"/>
      <point x="390" y="534"/>
      <point x="376" y="533"/>
      <point x="376" y="495" type="curve" smooth="yes"/>
      <point x="376" y="459"/>
      <point x="388" y="415"/>
      <point x="393" y="401" type="curve"/>
      <point x="376" y="373" type="line"/>
      <point x="369" y="407"/>
      <point x="368" y="422"/>
      <point x="368" y="434" type="curve" smooth="yes"/>
      <point x="368" y="461"/>
      <point x="363" y="475"/>
      <point x="351" y="475" type="curve" smooth="yes"/>
      <point x="343" y="475"/>
      <point x="333" y="470"/>
      <point x="333" y="445" type="curve" smooth="yes"/>
      <point x="333" y="416"/>
      <point x="348" y="357"/>
      <point x="352" y="344" type="curve"/>
      <point x="334" y="317" type="line"/>
      <point x="325" y="330"/>
      <point x="320" y="374"/>
      <point x="319" y="386" type="curve" smooth="yes"/>
      <point x="318" y="397"/>
      <point x="317" y="409"/>
      <point x="309" y="409" type="curve" smooth="yes"/>
      <point x="304" y="409"/>
      <point x="296" y="404"/>
      <point x="296" y="389" type="curve" smooth="yes"/>
      <point x="296" y="371"/>
      <point x="304" y="317"/>
      <point x="312" y="288" type="curve"/>
      <point x="295" y="261" type="line"/>
      <point x="282" y="267"/>
      <point x="270" y="326"/>
      <point x="269" y="332" type="curve" smooth="yes"/>
      <point x="266" y="348"/>
      <point x="262" y="358"/>
      <point x="251" y="358" type="curve" smooth="yes"/>
      <point x="240" y="358"/>
      <point x="237" y="347"/>
      <point x="237" y="339" type="curve" smooth="yes"/>
      <point x="237" y="316"/>
      <point x="264" y="226"/>
      <point x="272" y="215" type="curve"/>
      <point x="248" y="168" type="line"/>
      <point x="223" y="254"/>
      <point x="224" y="256"/>
      <point x="222" y="264" type="curve" smooth="yes"/>
      <point x="219" y="276"/>
      <point x="216" y="286"/>
      <point x="205" y="286" type="curve" smooth="yes"/>
      <point x="192" y="286"/>
      <point x="189" y="269"/>
      <point x="189" y="261" type="curve" smooth="yes"/>
      <point x="189" y="237"/>
      <point x="217" y="148"/>
      <point x="219" y="110" type="curve"/>
      <point x="200" y="78"/>
      <point x="186" y="57"/>
      <point x="166" y="36" type="curve"/>
      <point x="172" y="19"/>
      <point x="201" y="4"/>
    </contour>
  </outline>
</glyph>
<glyph name="uniA642" format="2">
  <advance width="592"/>
  <unicode hex="A642"/>
  <outline>
    <contour>
      <point x="81" y="368" type="line"/>
      <point x="508" y="368" type="line"/>
      <point x="508" y="378" type="line"/>
      <point x="81" y="378" type="line"/>
    </contour>
    <component base="uniA640"/>
  </outline>
</glyph>
<glyph name="uniA741" format="2">
  <advance width="586"/>
  <unicode hex="A741"/>
  <anchor x="294" y="760" name="top"/>
  <anchor x="294" y="0" name="bottom"/>
  <anchor x="566" y="760" name="topright"/>
  <outline>
    <contour>
      <point x="18" y="612" type="line"/>
      <point x="332" y="612" type="line"/>
      <point x="332" y="622" type="line"/>
      <point x="18" y="622" type="line"/>
    </contour>
    <component base="k" xOffset="1"/>
  </outline>
</glyph>
<glyph name="uniA742" format="2">
  <advance width="700"/>
  <unicode hex="A742"/>
  <anchor x="350" y="0" name="bottom"/>
  <anchor x="350" y="714" name="top"/>
  <anchor x="680" y="714" name="topright"/>
  <outline>
    <contour>
      <point x="351" y="128" type="line"/>
      <point x="586" y="300" type="line"/>
      <point x="580" y="308" type="line"/>
      <point x="345" y="137" type="line"/>
    </contour>
    <component base="K"/>
  </outline>
</glyph>
<glyph name="uniA745" format="2">
  <advance width="586"/>
  <unicode hex="A745"/>
  <anchor x="294" y="0" name="bottom"/>
  <anchor x="294" y="760" name="top"/>
  <anchor x="426" y="860" name="topright"/>
  <outline>
    <contour>
      <point x="269" y="106" type="line"/>
      <point x="492" y="269" type="line"/>
      <point x="487" y="277" type="line"/>
      <point x="263" y="114" type="line"/>
    </contour>
    <contour>
      <point x="18" y="612" type="line"/>
      <point x="332" y="612" type="line"/>
      <point x="332" y="622" type="line"/>
      <point x="18" y="622" type="line"/>
    </contour>
    <component base="k" xOffset="1"/>
  </outline>
</glyph>
<glyph name="uniA756" format="2">
  <advance width="742"/>
  <unicode hex="A756"/>
  <anchor x="371" y="-230" name="bottom"/>
  <anchor x="371" y="714" name="top"/>
  <anchor x="722" y="714" name="topright"/>
  <outline>
    <contour>
      <point x="288" y="-187" type="line"/>
      <point x="577" y="-73" type="line"/>
      <point x="574" y="-64" type="line"/>
      <point x="285" y="-178" type="line"/>
    </contour>
    <component base="Q"/>
  </outline>
</glyph>
<glyph name="uniA758" format="2">
  <advance width="910"/>
  <unicode hex="A758"/>
  <anchor x="371" y="-230" name="bottom"/>
  <anchor x="371" y="714" name="top"/>
  <anchor x="722" y="714" name="topright"/>
  <outline>
    <contour>
      <point x="510" y="-202" type="line"/>
      <point x="767" y="130" type="line" smooth="yes"/>
      <point x="834" y="216"/>
      <point x="886" y="285"/>
      <point x="886" y="365" type="curve" smooth="yes"/>
      <point x="886" y="429"/>
      <point x="853" y="468"/>
      <point x="808" y="468" type="curve" smooth="yes"/>
      <point x="769" y="468"/>
      <point x="748" y="439"/>
      <point x="748" y="409" type="curve"/>
      <point x="808" y="400"/>
      <point x="827" y="360"/>
      <point x="827" y="302" type="curve" smooth="yes"/>
      <point x="827" y="220"/>
      <point x="788" y="174"/>
      <point x="752" y="127" type="curve" smooth="yes"/>
      <point x="501" y="-197" type="line"/>
    </contour>
    <component base="Q"/>
  </outline>
</glyph>
<glyph name="uniA765" format="2">
  <advance width="624"/>
  <unicode hex="A765"/>
  <anchor x="307" y="-240" name="bottom"/>
  <anchor x="307" y="760" name="top"/>
  <outline>
    <contour>
      <point x="27" y="612" type="line"/>
      <point x="341" y="612" type="line"/>
      <point x="341" y="622" type="line"/>
      <point x="27" y="622" type="line"/>
    </contour>
    <component base="thorn"/>
  </outline>
</glyph>
<glyph name="uniA792" format="2">
  <advance width="664"/>
  <unicode hex="A792"/>
  <anchor x="407" y="0" name="bottom"/>
  <anchor x="417" y="714" name="top"/>
  <anchor x="644" y="714" name="topright"/>
  <outline>
    <contour>
      <point x="15" y="368" type="line"/>
      <point x="332" y="368" type="line"/>
      <point x="332" y="378" type="line"/>
      <point x="15" y="378" type="line"/>
    </contour>
    <component base="C" xOffset="50"/>
  </outline>
</glyph>
<glyph name="uniA799" format="2">
  <advance width="369"/>
  <unicode hex="A799"/>
  <anchor x="185" y="0" name="bottom"/>
  <anchor x="285" y="770" name="top"/>
  <anchor x="439" y="770" name="topright"/>
  <outline>
    <contour>
      <point x="27" y="271" type="line"/>
      <point x="333" y="271" type="line"/>
      <point x="333" y="281" type="line"/>
      <point x="27" y="281" type="line"/>
    </contour>
    <component base="f"/>
  </outline>
</glyph>
<glyph name="uniA7A2" format="2">
  <advance width="700"/>
  <unicode hex="A7A2"/>
  <anchor x="350" y="0" name="bottom"/>
  <anchor x="350" y="714" name="top"/>
  <anchor x="680" y="714" name="topright"/>
  <outline>
    <contour>
      <point x="38" y="131" type="line"/>
      <point x="628" y="263" type="line"/>
      <point x="628" y="273" type="line"/>
      <point x="38" y="141" type="line"/>
    </contour>
    <component base="K"/>
  </outline>
</glyph>
<glyph name="uniA7A5" format="2">
  <advance width="645"/>
  <unicode hex="A7A5"/>
  <anchor x="323" y="0" name="bottom"/>
  <anchor x="323" y="536" name="top"/>
  <anchor x="585" y="536" name="topright"/>
  <outline>
    <contour>
      <point x="28" y="199" type="line"/>
      <point x="617" y="313" type="line"/>
      <point x="617" y="323" type="line"/>
      <point x="28" y="209" type="line"/>
    </contour>
    <component base="n"/>
  </outline>
</glyph>
<glyph name="uniA7A6" format="2">
  <advance width="656"/>
  <unicode hex="A7A6"/>
  <anchor x="328" y="0" name="bottom"/>
  <anchor x="328" y="714" name="top"/>
  <anchor x="636" y="714" name="topright"/>
  <outline>
    <contour>
      <point x="38" y="442" type="line"/>
      <point x="656" y="580" type="line"/>
      <point x="656" y="590" type="line"/>
      <point x="38" y="452" type="line"/>
    </contour>
    <component base="R"/>
  </outline>
</glyph>
<glyph name="uniA7A8" format="2">
  <advance width="544"/>
  <unicode hex="A7A8"/>
  <anchor x="272" y="0" name="bottom"/>
  <anchor x="272" y="714" name="top"/>
  <anchor x="524" y="714" name="topright"/>
  <outline>
    <contour>
      <point x="38" y="309" type="line"/>
      <point x="506" y="413" type="line"/>
      <point x="506" y="423" type="line"/>
      <point x="38" y="319" type="line"/>
    </contour>
    <component base="S"/>
  </outline>
</glyph>
<glyph name="uniA7A9" format="2">
  <advance width="451"/>
  <unicode hex="A7A9"/>
  <anchor x="226" y="0" name="bottom"/>
  <anchor x="226" y="536" name="top"/>
  <anchor x="411" y="536" name="topright"/>
  <outline>
    <contour>
      <point x="19" y="222" type="line"/>
      <point x="434" y="327" type="line"/>
      <point x="434" y="338" type="line"/>
      <point x="19" y="233" type="line"/>
    </contour>
    <component base="s"/>
  </outline>
</glyph>
<glyph name="uniA7AE" format="2">
  <advance width="567"/>
  <unicode hex="A7AE"/>
  <outline>
    <contour>
      <point x="43" y="0" type="line"/>
      <point x="524" y="0" type="line"/>
      <point x="531" y="174" type="line"/>
      <point x="521" y="174" type="line"/>
      <point x="517" y="111" type="line" smooth="yes"/>
      <point x="512" y="33"/>
      <point x="495" y="10"/>
      <point x="425" y="10" type="curve" smooth="yes"/>
      <point x="331" y="10" type="line"/>
      <point x="331" y="704" type="line"/>
      <point x="425" y="704" type="line" smooth="yes"/>
      <point x="494" y="704"/>
      <point x="512" y="681"/>
      <point x="517" y="603" type="curve" smooth="yes"/>
      <point x="521" y="540" type="line"/>
      <point x="531" y="540" type="line"/>
      <point x="524" y="714" type="line"/>
      <point x="43" y="714" type="line"/>
      <point x="36" y="540" type="line"/>
      <point x="46" y="540" type="line"/>
      <point x="50" y="603" type="line" smooth="yes"/>
      <point x="55" y="681"/>
      <point x="72" y="704"/>
      <point x="143" y="704" type="curve" smooth="yes"/>
      <point x="236" y="704" type="line"/>
      <point x="236" y="10" type="line"/>
      <point x="143" y="10" type="line" smooth="yes"/>
      <point x="72" y="10"/>
      <point x="55" y="33"/>
      <point x="50" y="111" type="curve" smooth="yes"/>
      <point x="46" y="174" type="line"/>
      <point x="36" y="174" type="line"/>
    </contour>
  </outline>
</glyph>
<glyph name="uniA7C4" format="2">
  <advance width="614"/>
  <unicode hex="A7C4"/>
  <anchor x="373" y="0" name="bottom"/>
  <anchor x="367" y="714" name="top"/>
  <anchor x="594" y="714" name="topright"/>
  <outline>
    <contour>
      <point x="576" y="-50" type="curve" smooth="yes"/>
      <point x="576" y="108" type="line"/>
      <point x="566" y="108" type="line"/>
      <point x="566" y="-45" type="line" smooth="yes"/>
      <point x="566" y="-137"/>
      <point x="535" y="-169"/>
      <point x="488" y="-169" type="curve" smooth="yes"/>
      <point x="417" y="-169"/>
      <point x="447" y="-87"/>
      <point x="379" y="-87" type="curve" smooth="yes"/>
      <point x="341" y="-87"/>
      <point x="318" y="-112"/>
      <point x="318" y="-143" type="curve" smooth="yes"/>
      <point x="318" y="-185"/>
      <point x="357" y="-215"/>
      <point x="435" y="-215" type="curve" smooth="yes"/>
      <point x="508" y="-215"/>
      <point x="576" y="-174"/>
    </contour>
    <component base="C"/>
  </outline>
</glyph>
<glyph name="uniA7C5" format="2">
  <advance width="544"/>
  <unicode hex="A7C5"/>
  <anchor x="272" y="0" name="bottom"/>
  <anchor x="272" y="714" name="top"/>
  <anchor x="524" y="714" name="topright"/>
  <outline>
    <contour>
      <point x="48" y="-50" type="line"/>
      <point x="48" y="-174"/>
      <point x="116" y="-215"/>
      <point x="189" y="-215" type="curve" smooth="yes"/>
      <point x="267" y="-215"/>
      <point x="306" y="-185"/>
      <point x="306" y="-143" type="curve" smooth="yes"/>
      <point x="306" y="-112"/>
      <point x="283" y="-87"/>
      <point x="245" y="-87" type="curve" smooth="yes"/>
      <point x="177" y="-87"/>
      <point x="207" y="-169"/>
      <point x="136" y="-169" type="curve" smooth="yes"/>
      <point x="89" y="-169"/>
      <point x="58" y="-137"/>
      <point x="58" y="-45" type="curve" smooth="yes"/>
      <point x="58" y="129" type="line"/>
      <point x="48" y="129" type="line"/>
    </contour>
    <component base="S"/>
  </outline>
</glyph>
<glyph name="uniA7C6" format="2">
  <advance width="592"/>
  <unicode hex="A7C6"/>
  <anchor x="296" y="0" name="bottom"/>
  <anchor x="296" y="714" name="top"/>
  <anchor x="572" y="714" name="topright"/>
  <outline>
    <contour>
      <point x="545" y="-50" type="curve" smooth="yes"/>
      <point x="545" y="8" type="line"/>
      <point x="535" y="8" type="line"/>
      <point x="535" y="-45" type="line" smooth="yes"/>
      <point x="535" y="-137"/>
      <point x="504" y="-169"/>
      <point x="457" y="-169" type="curve" smooth="yes"/>
      <point x="386" y="-169"/>
      <point x="416" y="-87"/>
      <point x="348" y="-87" type="curve" smooth="yes"/>
      <point x="310" y="-87"/>
      <point x="287" y="-112"/>
      <point x="287" y="-143" type="curve" smooth="yes"/>
      <point x="287" y="-185"/>
      <point x="326" y="-215"/>
      <point x="404" y="-215" type="curve" smooth="yes"/>
      <point x="477" y="-215"/>
      <point x="545" y="-174"/>
    </contour>
    <component base="Z"/>
  </outline>
</glyph>
<glyph name="uniA7C8" format="2">
  <advance width="614"/>
  <unicode hex="A7C8"/>
  <anchor x="307" y="0" name="bottom"/>
  <anchor x="307" y="268" name="center"/>
  <anchor x="307" y="760" name="top"/>
  <anchor x="574" y="760" name="topright"/>
  <outline>
    <contour>
      <point x="90" y="266" type="line"/>
      <point x="457" y="266" type="line"/>
      <point x="457" y="276" type="line"/>
      <point x="90" y="276" type="line"/>
    </contour>
    <component base="d"/>
  </outline>
</glyph>
<glyph name="uniA7FF" format="2">
  <advance width="1057"/>
  <unicode hex="A7FF"/>
  <outline>
    <contour>
      <point x="0" y="0" type="line"/>
      <point x="214" y="0" type="line"/>
      <point x="214" y="10" type="line"/>
      <point x="179" y="10" type="line" smooth="yes"/>
      <point x="130" y="10"/>
      <point x="109" y="22"/>
      <point x="109" y="55" type="curve" smooth="yes"/>
      <point x="109" y="67"/>
      <point x="112" y="82"/>
      <point x="118" y="102" type="curve" smooth="yes"/>
      <point x="192" y="351" type="line" smooth="yes"/>
      <point x="207" y="400"/>
      <point x="220" y="449"/>
      <point x="235" y="500" type="curve"/>
      <point x="237" y="500" type="line"/>
      <point x="250" y="451"/>
      <point x="262" y="410"/>
      <point x="277" y="357" type="curve" smooth="yes"/>
      <point x="378" y="0" type="line"/>
      <point x="453" y="0" type="line"/>
      <point x="577" y="475" type="line"/>
      <point x="738" y="0" type="line"/>
      <point x="813" y="0" type="line"/>
      <point x="928" y="448" type="line" smooth="yes"/>
      <point x="943" y="507"/>
      <point x="966" y="526"/>
      <point x="1004" y="526" type="curve" smooth="yes"/>
      <point x="1030" y="526" type="line"/>
      <point x="1030" y="536" type="line"/>
      <point x="816" y="536" type="line"/>
      <point x="816" y="526" type="line"/>
      <point x="851" y="526" type="line" smooth="yes"/>
      <point x="904" y="526"/>
      <point x="923" y="516"/>
      <point x="923" y="486" type="curve" smooth="yes"/>
      <point x="923" y="473"/>
      <point x="919" y="456"/>
      <point x="914" y="435" type="curve" smooth="yes"/>
      <point x="850" y="185" type="line" smooth="yes"/>
      <point x="837" y="135"/>
      <point x="825" y="85"/>
      <point x="812" y="35" type="curve"/>
      <point x="810" y="35" type="line"/>
      <point x="793" y="88"/>
      <point x="778" y="138"/>
      <point x="760" y="191" type="curve" smooth="yes"/>
      <point x="645" y="533" type="line"/>
      <point x="581" y="533" type="line"/>
      <point x="493" y="196" type="line" smooth="yes"/>
      <point x="479" y="144"/>
      <point x="467" y="95"/>
      <point x="454" y="44" type="curve"/>
      <point x="452" y="44" type="line"/>
      <point x="438" y="94"/>
      <point x="425" y="143"/>
      <point x="411" y="193" type="curve" smooth="yes"/>
      <point x="312" y="536" type="line"/>
      <point x="237" y="536" type="line"/>
      <point x="104" y="89" type="line" smooth="yes"/>
      <point x="86" y="30"/>
      <point x="68" y="10"/>
      <point x="26" y="10" type="curve" smooth="yes"/>
      <point x="0" y="10" type="line"/>
    </contour>
  </outline>
</glyph>
<glyph name="uniAB41" format="2">
  <advance width="905"/>
  <unicode hex="AB41"/>
  <anchor x="452" y="537" name="bottom"/>
  <anchor x="452" y="1" name="top"/>
  <outline>
    <contour>
      <point x="423" y="-40" type="line"/>
      <point x="435" y="-40" type="line"/>
      <point x="815" y="576" type="line"/>
      <point x="803" y="576" type="line"/>
    </contour>
    <component base="oe" xScale="-1" yScale="-1" xOffset="905" yOffset="537"/>
  </outline>
</glyph>
<glyph name="uniAB42" format="2">
  <advance width="905"/>
  <unicode hex="AB42"/>
  <anchor x="456" y="535" name="bottom"/>
  <anchor x="456" y="-1" name="top"/>
  <outline>
    <contour>
      <point x="466" y="283" type="line"/>
      <point x="466" y="273" type="line"/>
      <point x="781" y="273" type="line"/>
      <point x="781" y="283" type="line"/>
    </contour>
    <component base="oe" xScale="-1" yScale="-1" xOffset="909" yOffset="535"/>
  </outline>
</glyph>
<glyph name="uniAB60" format="2">
  <advance width="910"/>
  <unicode hex="AB60"/>
  <outline>
    <contour>
      <point x="338" y="0" type="line"/>
      <point x="618" y="0" type="line" smooth="yes"/>
      <point x="758" y="0"/>
      <point x="825" y="65"/>
      <point x="825" y="153" type="curve" smooth="yes"/>
      <point x="825" y="276"/>
      <point x="717" y="298"/>
      <point x="594" y="298" type="curve" smooth="yes"/>
      <point x="527" y="298" type="line"/>
      <point x="527" y="458" type="line" smooth="yes"/>
      <point x="527" y="517"/>
      <point x="565" y="526"/>
      <point x="609" y="526" type="curve" smooth="yes"/>
      <point x="622" y="526" type="line"/>
      <point x="622" y="536" type="line"/>
      <point x="338" y="536" type="line"/>
      <point x="338" y="526" type="line"/>
      <point x="351" y="526" type="line" smooth="yes"/>
      <point x="395" y="526"/>
      <point x="433" y="517"/>
      <point x="433" y="458" type="curve" smooth="yes"/>
      <point x="433" y="77" type="line" smooth="yes"/>
      <point x="433" y="18"/>
      <point x="395" y="10"/>
      <point x="351" y="10" type="curve" smooth="yes"/>
      <point x="338" y="10" type="line"/>
    </contour>
    <contour>
      <point x="33" y="0" type="line"/>
      <point x="297" y="0" type="line"/>
      <point x="297" y="10" type="line"/>
      <point x="294" y="10" type="line" smooth="yes"/>
      <point x="250" y="10"/>
      <point x="212" y="18"/>
      <point x="212" y="77" type="curve" smooth="yes"/>
      <point x="212" y="459" type="line" smooth="yes"/>
      <point x="212" y="518"/>
      <point x="250" y="526"/>
      <point x="294" y="526" type="curve" smooth="yes"/>
      <point x="297" y="526" type="line"/>
      <point x="297" y="536" type="line"/>
      <point x="33" y="536" type="line"/>
      <point x="33" y="526" type="line"/>
      <point x="36" y="526" type="line" smooth="yes"/>
      <point x="80" y="526"/>
      <point x="118" y="517"/>
      <point x="118" y="458" type="curve" smooth="yes"/>
      <point x="118" y="77" type="line" smooth="yes"/>
      <point x="118" y="18"/>
      <point x="80" y="10"/>
      <point x="36" y="10" type="curve" smooth="yes"/>
      <point x="33" y="10" type="line"/>
    </contour>
    <contour>
      <point x="527" y="10" type="line"/>
      <point x="527" y="288" type="line"/>
      <point x="593" y="288" type="line" smooth="yes"/>
      <point x="685" y="288"/>
      <point x="724" y="246"/>
      <point x="724" y="149" type="curve" smooth="yes"/>
      <point x="724" y="52"/>
      <point x="686" y="10"/>
      <point x="599" y="10" type="curve" smooth="yes"/>
    </contour>
  </outline>
</glyph>
<glyph name="uniAB69" format="2">
  <advance width="559"/>
  <unicode hex="AB69"/>
  <anchor x="280" y="287" name="bottom"/>
  <anchor x="6" y="287" name="bottomleft"/>
  <anchor x="280" y="609" name="top"/>
  <outline>
    <contour>
      <point x="514" y="325" type="curve" smooth="yes"/>
      <point x="424" y="609" type="line"/>
      <point x="375" y="609" type="line"/>
      <point x="295" y="324" type="line"/>
      <point x="193" y="609" type="line"/>
      <point x="141" y="609" type="line"/>
      <point x="67" y="340" type="line" smooth="yes"/>
      <point x="57" y="305"/>
      <point x="42" y="293"/>
      <point x="17" y="293" type="curve" smooth="yes"/>
      <point x="0" y="293" type="line"/>
      <point x="0" y="287" type="line"/>
      <point x="139" y="287" type="line"/>
      <point x="139" y="293" type="line"/>
      <point x="117" y="293" type="line" smooth="yes"/>
      <point x="82" y="293"/>
      <point x="70" y="299"/>
      <point x="70" y="317" type="curve" smooth="yes"/>
      <point x="70" y="325"/>
      <point x="73" y="335"/>
      <point x="76" y="348" type="curve" smooth="yes"/>
      <point x="117" y="498" type="line" smooth="yes"/>
      <point x="126" y="528"/>
      <point x="134" y="558"/>
      <point x="142" y="588" type="curve"/>
      <point x="143" y="588" type="line"/>
      <point x="154" y="556"/>
      <point x="165" y="526"/>
      <point x="177" y="494" type="curve" smooth="yes"/>
      <point x="251" y="289" type="line"/>
      <point x="292" y="289" type="line"/>
      <point x="349" y="491" type="line" smooth="yes"/>
      <point x="359" y="523"/>
      <point x="366" y="552"/>
      <point x="375" y="583" type="curve"/>
      <point x="376" y="583" type="line"/>
      <point x="385" y="553"/>
      <point x="394" y="523"/>
      <point x="403" y="493" type="curve" smooth="yes"/>
      <point x="447" y="344" type="line" smooth="yes"/>
      <point x="451" y="332"/>
      <point x="453" y="323"/>
      <point x="453" y="316" type="curve" smooth="yes"/>
      <point x="453" y="300"/>
      <point x="443" y="293"/>
      <point x="413" y="293" type="curve" smooth="yes"/>
      <point x="399" y="293" type="line"/>
      <point x="399" y="287" type="line"/>
      <point x="559" y="287" type="line"/>
      <point x="559" y="293" type="line"/>
      <point x="552" y="293" type="line" smooth="yes"/>
      <point x="533" y="293"/>
      <point x="521" y="302"/>
    </contour>
  </outline>
</glyph>
<glyph name="uniFE20" format="2">
  <unicode hex="FE20"/>
  <anchor x="2" y="536" name="_top"/>
  <outline>
    <contour>
      <point x="-386" y="593" type="curve"/>
      <point x="-375" y="593" type="line"/>
      <point x="-305" y="684"/>
      <point x="-194" y="714"/>
      <point x="2" y="714" type="curve"/>
      <point x="2" y="781" type="line"/>
      <point x="-10" y="781" type="line" smooth="yes"/>
      <point x="-185" y="781"/>
      <point x="-305" y="728"/>
    </contour>
  </outline>
</glyph>
<glyph name="uniFE22" format="2">
  <unicode hex="FE22"/>
  <anchor x="3" y="536" name="_top"/>
  <outline>
    <contour>
      <point x="-384" y="596" type="curve"/>
      <point x="-374" y="596" type="line"/>
      <point x="-350" y="648"/>
      <point x="-316" y="670"/>
      <point x="-230" y="670" type="curve" smooth="yes"/>
      <point x="-138" y="670"/>
      <point x="-68" y="644"/>
      <point x="3" y="626" type="curve"/>
      <point x="3" y="695" type="line"/>
      <point x="-57" y="710"/>
      <point x="-126" y="725"/>
      <point x="-207" y="725" type="curve" smooth="yes"/>
      <point x="-306" y="725"/>
      <point x="-364" y="672"/>
    </contour>
  </outline>
</glyph>
<glyph name="uniFE23" format="2">
  <unicode hex="FE23"/>
  <anchor x="-3" y="536" name="_top"/>
  <outline>
    <contour>
      <point x="205" y="599" type="curve" smooth="yes"/>
      <point x="304" y="599"/>
      <point x="362" y="651"/>
      <point x="382" y="727" type="curve"/>
      <point x="372" y="727" type="line"/>
      <point x="348" y="675"/>
      <point x="314" y="654"/>
      <point x="228" y="654" type="curve" smooth="yes"/>
      <point x="136" y="654"/>
      <point x="66" y="679"/>
      <point x="-5" y="697" type="curve"/>
      <point x="-5" y="628" type="line"/>
      <point x="55" y="613"/>
      <point x="124" y="599"/>
    </contour>
  </outline>
</glyph>
<glyph name="uniFE28" format="2">
  <unicode hex="FE28"/>
  <anchor x="0" y="0" name="_bottom"/>
  <anchor x="189" y="536" name="braceleft"/>
  <outline>
    <contour>
      <point x="0" y="-207" type="line"/>
      <point x="187" y="-207"/>
      <point x="306" y="-148"/>
      <point x="377" y="-26" type="curve"/>
      <point x="367" y="-26" type="line"/>
      <point x="310" y="-107"/>
      <point x="195" y="-147"/>
      <point x="0" y="-147" type="curve"/>
    </contour>
  </outline>
</glyph>
<glyph name="uniFE29" format="2">
  <unicode hex="FE29"/>
  <anchor x="0" y="0" name="_bottom"/>
  <anchor x="-192" y="536" name="braceleft"/>
  <outline>
    <contour>
      <point x="-384" y="-196" type="curve"/>
      <point x="-374" y="-196" type="line"/>
      <point x="-363" y="-172"/>
      <point x="-348" y="-154"/>
      <point x="-328" y="-143" type="curve" smooth="yes"/>
      <point x="-309" y="-133"/>
      <point x="-281" y="-127"/>
      <point x="-245" y="-127" type="curve" smooth="yes"/>
      <point x="-194" y="-127"/>
      <point x="-95" y="-140"/>
      <point x="0" y="-165" type="curve"/>
      <point x="0" y="-97" type="line"/>
      <point x="-73" y="-77"/>
      <point x="-143" y="-67"/>
      <point x="-207" y="-67" type="curve" smooth="yes"/>
      <point x="-300" y="-67"/>
      <point x="-363" y="-115"/>
    </contour>
  </outline>
</glyph>
<glyph name="uniFE2C" format="2">
  <unicode hex="FE2C"/>
  <anchor x="0" y="0" name="_bottom"/>
  <anchor x="-189" y="536" name="braceleft"/>
  <outline>
    <contour>
      <point x="-377" y="-182" type="line"/>
      <point x="0" y="-182" type="line"/>
      <point x="0" y="-162" type="line"/>
      <point x="-377" y="-162" type="line"/>
    </contour>
  </outline>
</glyph>
<glyph name="uniFE2E" format="2">
  <unicode hex="FE2E"/>
  <anchor x="-87" y="536" name="_top"/>
  <outline>
    <contour>
      <point x="-90" y="568" type="curve" smooth="yes"/>
      <point x="-52" y="568"/>
      <point x="-46" y="583"/>
      <point x="-46" y="633" type="curve"/>
      <point x="134" y="633" type="line"/>
      <point x="134" y="653" type="line"/>
      <point x="-90" y="653" type="line" smooth="yes"/>
      <point x="-120" y="653"/>
      <point x="-134" y="640"/>
      <point x="-134" y="611" type="curve" smooth="yes"/>
      <point x="-134" y="582"/>
      <point x="-120" y="568"/>
    </contour>
  </outline>
</glyph>
<glyph name="uniFE2F" format="2">
  <unicode hex="FE2F"/>
  <anchor x="86" y="536" name="_top"/>
  <outline>
    <contour>
      <point x="-134" y="630" type="line"/>
      <point x="90" y="630" type="line" smooth="yes"/>
      <point x="120" y="630"/>
      <point x="134" y="643"/>
      <point x="134" y="672" type="curve" smooth="yes"/>
      <point x="134" y="701"/>
      <point x="120" y="715"/>
      <point x="90" y="715" type="curve" smooth="yes"/>
      <point x="52" y="715"/>
      <point x="46" y="700"/>
      <point x="46" y="650" type="curve"/>
      <point x="-134" y="650" type="line"/>
    </contour>
  </outline>
</glyph>
<glyph name="oslash.sc" format="2">
  <advance width="631"/>
  <anchor x="316" y="0" name="bottom"/>
  <anchor x="316" y="571" name="top"/>
  <anchor x="316" y="286" name="center"/>
  <anchor x="611" y="571" name="topright"/>
  <outline>
    <contour>
      <point x="128" y="-32" type="line"/>
      <point x="140" y="-32" type="line"/>
      <point x="495" y="596" type="line"/>
      <point x="483" y="596" type="line"/>
    </contour>
    <component base="o.sc"/>
  </outline>
</glyph>
<glyph name="uni0268dotless" format="2">
  <advance width="320"/>
  <anchor x="160" y="0" name="bottom"/>
  <anchor x="160" y="536" name="top"/>
  <outline>
    <contour>
      <point x="10" y="280" type="line"/>
      <point x="310" y="280" type="line"/>
      <point x="310" y="290" type="line"/>
      <point x="10" y="290" type="line"/>
    </contour>
    <component base="idotless"/>
  </outline>
</glyph>
